<svg  xmlns="http://www.w3.org/2000/svg" xmlns:xlink="http://www.w3.org/1999/xlink">
    <symbol id="instagram" viewBox="0 0 32 32">
<path d="M23,0H9C4,0,0,4,0,9v6v8c0,5,4,9,9,9h14c5,0,9-4,9-9v-8V9C32,4,28,0,23,0z M16,10c3.3,0,6,2.7,6,6s-2.7,6-6,6s-6-2.7-6-6
	S12.7,10,16,10z M22,7c0-1.1,0.9-2,2-2s2,0.9,2,2s-0.9,2-2,2S22,8.1,22,7z"/>
    </symbol>
    <symbol id="viber" viewBox="0 0 32 32">
<path d="M16,0C8.1,0,0,1.7,0,14c0,6.6,2.3,10.7,7,12.6v3.7c0,0.7,0.4,1.3,1,1.6C8.2,32,8.5,32,8.7,32c0.4,0,0.9-0.2,1.2-0.5l3.6-3.6
	c0.8,0,1.6,0.1,2.5,0.1c7.9,0,16-1.7,16-14S23.9,0,16,0z M15.5,10.2c1.8,0,3.3,1.5,3.3,3.3c0,0.6-0.4,1-1,1s-1-0.4-1-1
	c0-0.7-0.6-1.3-1.3-1.3c-0.6,0-1-0.4-1-1S14.9,10.2,15.5,10.2z M14.5,8.1c0-0.6,0.4-1,1-1c3.5,0,6.4,2.9,6.4,6.4c0,0.6-0.4,1-1,1
	s-1-0.4-1-1c0-2.4-2-4.4-4.4-4.4C14.9,9.1,14.5,8.6,14.5,8.1z M22.7,20.5c-0.4,1.2-1.9,2.2-3.2,2.4C19.2,23,18.9,23,18.5,23
	c-0.8,0-2-0.2-4.1-1.1c-2.4-1-4.8-3.1-6.7-5.8L7.7,16C7.1,15.1,6,13.4,6,11.6c0-2.2,1.1-3.3,1.5-3.8C8.1,7.3,8.8,7,9.6,7
	c0.2,0,0.3,0,0.5,0c0.7,0,1.2,0.2,1.7,1.2l0.4,0.8c0.3,0.8,0.7,1.7,0.8,1.8c0.3,0.6,0.3,1.1,0,1.6c-0.1,0.3-0.3,0.5-0.5,0.7
	c-0.1,0.2-0.2,0.3-0.3,0.3c-0.1,0.1-0.1,0.1-0.2,0.2c0.3,0.5,0.9,1.4,1.7,2.1c1.2,1.1,2.1,1.4,2.6,1.6l0,0c0.2-0.2,0.4-0.6,0.7-0.9
	l0.1-0.2c0.5-0.7,1.3-0.9,2.1-0.6c0.4,0.2,2.6,1.2,2.6,1.2l0.2,0.1c0.3,0.2,0.7,0.3,0.9,0.7C23.2,18.5,22.9,19.8,22.7,20.5z
	 M24,14.5c-0.6,0-1-0.4-1-1C23,9.4,19.6,6,15.5,6c-0.6,0-1-0.4-1-1s0.4-1,1-1c5.2,0,9.5,4.3,9.5,9.5C25,14.1,24.6,14.5,24,14.5z"/>
    </symbol>
    <symbol id="telegram" viewBox="0 0 24 24">
<path d="m12 0c-6.627 0-12 5.373-12 12s5.373 12 12 12 12-5.373 12-12c0-6.627-5.373-12-12-12zm5.894 8.221-1.97 9.28c-.145.658-.537.818-1.084.508l-3-2.21-1.446 1.394c-.14.18-.357.295-.6.295-.002 0-.003 0-.005 0l.213-3.054 5.56-5.022c.24-.213-.054-.334-.373-.121l-6.869 4.326-2.96-.924c-.64-.203-.658-.64.135-.954l11.566-4.458c.538-.196 1.006.128.832.941z"/>
</svg>